<svg width="44" height="44" viewBox="0 0 44 44" fill="none" xmlns="http://www.w3.org/2000/svg">
<g id="solar:close-circle-bold-duotone">
<g id="Group">
<path id="Vector" opacity="0.5" d="M40.3333 22.0001C40.3333 32.1256 32.1255 40.3334 22 40.3334C11.8745 40.3334 3.66667 32.1256 3.66667 22.0001C3.66667 11.8746 11.8745 3.66675 22 3.66675C32.1255 3.66675 40.3333 11.8746 40.3333 22.0001Z" fill="#D9D9D9"/>
<path id="Vector_2" d="M16.445 16.4452C16.7028 16.1877 17.0523 16.0431 17.4167 16.0431C17.781 16.0431 18.1305 16.1877 18.3883 16.4452L22 20.0569L25.6117 16.4452C25.7375 16.3101 25.8893 16.2018 26.058 16.1266C26.2267 16.0515 26.4088 16.011 26.5934 16.0078C26.778 16.0045 26.9614 16.0385 27.1326 16.1076C27.3038 16.1768 27.4593 16.2797 27.5899 16.4103C27.7205 16.5409 27.8234 16.6964 27.8926 16.8676C27.9617 17.0388 27.9957 17.2222 27.9924 17.4068C27.9892 17.5914 27.9488 17.7735 27.8736 17.9422C27.7984 18.1109 27.6901 18.2627 27.555 18.3885L23.9433 22.0002L27.555 25.6119C27.7979 25.8725 27.9301 26.2173 27.9238 26.5735C27.9175 26.9297 27.7732 27.2696 27.5213 27.5215C27.2694 27.7734 26.9295 27.9177 26.5733 27.924C26.2171 27.9303 25.8723 27.7981 25.6117 27.5552L22 23.9435L18.3883 27.5552C18.1277 27.7981 17.7829 27.9303 17.4267 27.924C17.0705 27.9177 16.7306 27.7734 16.4787 27.5215C16.2268 27.2696 16.0825 26.9297 16.0762 26.5735C16.0699 26.2173 16.2021 25.8725 16.445 25.6119L20.0567 22.0002L16.445 18.3885C16.1875 18.1307 16.0429 17.7812 16.0429 17.4169C16.0429 17.0525 16.1875 16.703 16.445 16.4452Z" fill="#8B8585"/>
</g>
</g>
</svg>
