<svg width="1024" height="1024" viewBox="0 0 1024 1024" fill="none" xmlns="http://www.w3.org/2000/svg">
<rect width="1024" height="1024" fill="url(#paint0_linear_198_174)"/>
<path d="M256 513.899C256 502.854 264.954 493.899 276 493.899H397.648V576.472C397.648 587.517 388.693 596.472 377.648 596.472H256V513.899Z" fill="url(#paint1_linear_198_174)"/>
<path d="M426.954 333.176C426.954 322.131 435.908 313.176 446.954 313.176H568.602V576.472C568.602 587.517 559.647 596.472 548.602 596.472H426.954V333.176Z" fill="url(#paint2_linear_198_174)"/>
<path d="M597.908 162.222C597.908 151.176 606.862 142.222 617.908 142.222H739.556V576.471C739.556 587.517 730.601 596.471 719.556 596.471H597.908V162.222Z" fill="url(#paint3_linear_198_174)"/>
<path d="M256 611.124H377.648C388.693 611.124 397.648 620.079 397.648 631.124V655.084H276C264.954 655.084 256 646.13 256 635.084V611.124Z" fill="url(#paint4_linear_198_174)"/>
<path d="M426.954 611.124H548.602C559.647 611.124 568.602 620.079 568.602 631.124V655.084H446.954C435.908 655.084 426.954 646.13 426.954 635.084V611.124Z" fill="url(#paint5_linear_198_174)"/>
<path d="M597.908 611.124H719.556C730.601 611.124 739.556 620.079 739.556 631.124V655.084H617.908C606.862 655.084 597.908 646.13 597.908 635.084V611.124Z" fill="url(#paint6_linear_198_174)"/>
<path d="M226.019 834.94C220.259 834.94 215.279 833.68 211.079 831.16C206.939 828.58 203.729 825.22 201.449 821.08C199.229 816.94 198.119 812.5 198.119 807.76C198.119 802.78 199.589 798.07 202.529 793.63C205.469 789.19 210.509 785.44 217.649 782.38C224.849 779.26 234.779 777.22 247.439 776.26C247.019 779.08 246.329 781.69 245.369 784.09C244.409 786.43 243.089 788.38 241.409 789.94C239.789 791.5 237.719 792.52 235.199 793C232.199 793.48 229.739 794.32 227.819 795.52C225.899 796.72 224.489 798.19 223.589 799.93C222.689 801.61 222.239 803.44 222.239 805.42C222.239 808.54 223.349 811.15 225.569 813.25C227.789 815.35 230.459 816.4 233.579 816.4C236.999 816.4 240.449 815.23 243.929 812.89C247.469 810.49 250.799 807.46 253.919 803.8V776.62C253.919 770.38 252.179 765.4 248.699 761.68C245.279 757.96 240.419 756.1 234.119 756.1C231.179 756.1 227.999 756.4 224.579 757C221.159 757.6 217.319 758.68 213.059 760.24L206.939 744.4C212.279 741.94 217.769 740.2 223.409 739.18C229.109 738.1 234.059 737.56 238.259 737.56C251.039 737.56 260.879 740.92 267.779 747.64C274.739 754.36 278.219 764.02 278.219 776.62V809.92C278.219 813.22 278.429 816.76 278.849 820.54C279.269 824.32 280.019 828.34 281.1 832.6H262.56C260.939 831.7 259.589 830.44 258.509 828.82C257.489 827.14 256.619 825.4 255.9 823.6L255.359 820L253.199 823.06C247.799 827.98 243.059 831.19 238.979 832.69C234.959 834.19 230.639 834.94 226.019 834.94ZM301.078 832.6V739.54H326.278V832.6H301.078ZM313.678 727.3C309.538 727.3 306.028 725.89 303.148 723.07C300.328 720.19 298.918 716.68 298.918 712.54C298.918 708.28 300.328 704.71 303.148 701.83C306.028 698.89 309.538 697.42 313.678 697.42C317.818 697.42 321.298 698.89 324.118 701.83C326.998 704.71 328.438 708.28 328.438 712.54C328.438 716.68 326.998 720.19 324.118 723.07C321.298 725.89 317.818 727.3 313.678 727.3ZM350.807 832.6V762.22C350.807 758.86 350.597 755.29 350.177 751.51C349.757 747.73 349.007 743.74 347.927 739.54H367.007C368.027 740.32 369.107 741.97 370.247 744.49C371.387 747.01 372.167 749.8 372.587 752.86L372.947 757.18L374.747 752.86C377.207 748.06 380.357 744.34 384.197 741.7C388.097 739.06 391.967 737.74 395.807 737.74C397.727 737.74 399.617 737.92 401.477 738.28C403.337 738.64 405.347 739.18 407.507 739.9L404.627 760.24C402.227 759.52 400.217 759.04 398.597 758.8C396.977 758.56 395.447 758.44 394.007 758.44C389.927 758.44 386.417 759.79 383.477 762.49C380.537 765.13 378.287 768.76 376.727 773.38C375.167 778 374.387 783.28 374.387 789.22V832.6H350.807ZM445.24 832.6L410.32 739.54H436.78L457.66 805.42L458.92 810.82L460.18 805.42L480.88 739.54H506.98L472.06 832.6H445.24ZM562.037 834.94C553.577 834.94 545.687 833.05 538.367 829.27C531.047 825.43 525.107 819.88 520.547 812.62C516.047 805.3 513.797 796.42 513.797 785.98C513.797 777.52 515.297 770.23 518.297 764.11C521.357 757.93 525.317 752.86 530.177 748.9C535.037 744.94 540.257 742 545.837 740.08C551.477 738.16 556.877 737.2 562.037 737.2C571.577 737.2 579.947 739.27 587.147 743.41C594.407 747.55 600.077 753.31 604.157 760.69C608.237 768.01 610.277 776.44 610.277 785.98C610.277 793.6 608.897 800.44 606.137 806.5C603.377 812.56 599.687 817.72 595.067 821.98C590.447 826.18 585.257 829.39 579.497 831.61C573.797 833.83 567.977 834.94 562.037 834.94ZM562.037 816.58C566.717 816.58 570.647 815.2 573.827 812.44C577.007 809.68 579.407 805.99 581.027 801.37C582.647 796.75 583.457 791.62 583.457 785.98C583.457 780.4 582.647 775.3 581.027 770.68C579.407 766.06 577.007 762.4 573.827 759.7C570.647 756.94 566.717 755.56 562.037 755.56C557.357 755.56 553.397 756.94 550.157 759.7C546.977 762.4 544.547 766.06 542.867 770.68C541.247 775.3 540.437 780.4 540.437 785.98C540.437 794.98 542.387 802.33 546.287 808.03C550.247 813.73 555.497 816.58 562.037 816.58ZM679.122 832.6C674.562 825.1 669.822 817.6 664.902 810.1C660.042 802.54 655.122 795.04 650.142 787.6L618.642 739.54H647.262L661.302 765.64L662.382 769.42L663.822 765.64L678.042 739.54H705.402L674.622 786.52L707.202 832.6H679.122ZM617.022 832.6L644.742 793C646.302 794.92 647.862 797.38 649.422 800.38C651.042 803.32 652.092 806.53 652.572 810.01C653.112 813.49 652.542 816.94 650.862 820.36L644.202 832.6H617.022ZM764.743 834.94C756.523 834.94 749.413 833.5 743.413 830.62C737.413 827.68 732.463 823.78 728.563 818.92C724.723 814 721.873 808.57 720.013 802.63C718.153 796.63 717.223 790.6 717.223 784.54C717.223 774.64 719.323 766.15 723.523 759.07C727.783 751.99 733.483 746.59 740.623 742.87C747.763 739.09 755.683 737.2 764.383 737.2C771.043 737.2 777.073 738.52 782.473 741.16C787.933 743.74 792.373 747.4 795.793 752.14C799.273 756.88 801.373 762.49 802.093 768.97C802.873 775.45 801.943 782.56 799.303 790.3H748.903C750.163 786.16 752.053 782.68 754.573 779.86C757.093 776.98 759.883 775.54 762.943 775.54H778.963C779.443 771.88 779.113 768.46 777.973 765.28C776.833 762.1 774.973 759.55 772.393 757.63C769.873 755.65 766.783 754.66 763.123 754.66C759.823 754.66 756.553 755.65 753.313 757.63C750.073 759.61 747.373 762.73 745.213 766.99C743.113 771.25 742.063 776.8 742.063 783.64C742.063 790.54 743.113 796.45 745.213 801.37C747.373 806.23 750.343 809.95 754.123 812.53C757.963 815.11 762.403 816.4 767.443 816.4C771.583 816.4 775.693 815.89 779.773 814.87C783.853 813.79 788.503 812.08 793.723 809.74L800.023 826.48C793.543 829.54 787.423 831.7 781.663 832.96C775.963 834.28 770.323 834.94 764.743 834.94ZM824.224 832.6V696.16H849.244V832.6H824.224Z" fill="black"/>
<circle cx="315.067" cy="712.067" r="17.0667" fill="url(#paint7_linear_198_174)"/>
<defs>
<linearGradient id="paint0_linear_198_174" x1="1024" y1="30.2796" x2="-3.05176e-05" y2="1024" gradientUnits="userSpaceOnUse">
<stop stop-color="#D9D9D9"/>
<stop offset="1" stop-color="#D9D9D9" stop-opacity="0"/>
</linearGradient>
<linearGradient id="paint1_linear_198_174" x1="397.648" y1="493.899" x2="292.852" y2="625.76" gradientUnits="userSpaceOnUse">
<stop stop-color="#FFC683"/>
<stop offset="1" stop-color="#D41A1A"/>
</linearGradient>
<linearGradient id="paint2_linear_198_174" x1="568.602" y1="313.176" x2="344.42" y2="415.309" gradientUnits="userSpaceOnUse">
<stop stop-color="#FFC683"/>
<stop offset="1" stop-color="#D41A1A"/>
</linearGradient>
<linearGradient id="paint3_linear_198_174" x1="739.556" y1="142.222" x2="489.066" y2="213.392" gradientUnits="userSpaceOnUse">
<stop stop-color="#FFC683"/>
<stop offset="1" stop-color="#D41A1A"/>
</linearGradient>
<linearGradient id="paint4_linear_198_174" x1="251.116" y1="611.124" x2="400.699" y2="638.271" gradientUnits="userSpaceOnUse">
<stop stop-color="#D72621"/>
<stop offset="1" stop-color="#FDBE7E"/>
</linearGradient>
<linearGradient id="paint5_linear_198_174" x1="422.07" y1="611.124" x2="571.653" y2="638.271" gradientUnits="userSpaceOnUse">
<stop stop-color="#D72621"/>
<stop offset="1" stop-color="#FDBE7E"/>
</linearGradient>
<linearGradient id="paint6_linear_198_174" x1="593.024" y1="611.124" x2="742.607" y2="638.271" gradientUnits="userSpaceOnUse">
<stop stop-color="#D72621"/>
<stop offset="1" stop-color="#FDBE7E"/>
</linearGradient>
<linearGradient id="paint7_linear_198_174" x1="324.102" y1="698.012" x2="305.027" y2="729.133" gradientUnits="userSpaceOnUse">
<stop stop-color="#FF0000"/>
<stop offset="1" stop-color="#7C0000"/>
</linearGradient>
</defs>
</svg>
