<svg width="44" height="44" viewBox="0 0 44 44" fill="none" xmlns="http://www.w3.org/2000/svg">
<g id="heroicons-solid:phone-missed-call">
<g id="Group">
<path id="Vector" d="M4.4 6.60002C4.4 6.01655 4.63179 5.45697 5.04437 5.04439C5.45695 4.63181 6.01653 4.40002 6.6 4.40002H11.3366C11.8574 4.40026 12.3611 4.58522 12.7583 4.922C13.1555 5.25877 13.4204 5.72552 13.5058 6.23922L15.1338 15.9962C15.2116 16.4609 15.1381 16.9383 14.9243 17.3581C14.7104 17.7779 14.3674 18.118 13.9458 18.3282L10.5402 20.0288C11.7614 23.0553 13.5802 25.8044 15.8879 28.1121C18.1956 30.4198 20.9448 32.2386 23.9712 33.4598L25.674 30.0542C25.8841 29.633 26.2239 29.2903 26.6432 29.0765C27.0626 28.8626 27.5395 28.7889 28.0038 28.8662L37.7608 30.4942C38.2745 30.5796 38.7413 30.8445 39.078 31.2417C39.4148 31.6389 39.5998 32.1427 39.6 32.6634V37.4C39.6 37.9835 39.3682 38.5431 38.9556 38.9557C38.5431 39.3682 37.9835 39.6 37.4 39.6H33C17.204 39.6 4.4 26.796 4.4 11V6.60002Z" fill="#545454"/>
<path id="Vector_2" d="M36.7554 7.24459C37.1678 7.65715 37.3995 8.21663 37.3995 8.79999C37.3995 9.38336 37.1678 9.94283 36.7554 10.3554L33.9108 13.2L36.7554 16.0446C37.1562 16.4595 37.3779 17.0152 37.3729 17.5921C37.3679 18.1689 37.1365 18.7207 36.7286 19.1286C36.3207 19.5365 35.7689 19.7679 35.1921 19.7729C34.6152 19.7779 34.0595 19.5561 33.6446 19.1554L30.8 16.3108L27.9554 19.1554C27.7525 19.3655 27.5097 19.5331 27.2413 19.6484C26.9729 19.7637 26.6842 19.8244 26.3921 19.8269C26.1 19.8295 25.8103 19.7738 25.5399 19.6632C25.2695 19.5526 25.0239 19.3892 24.8173 19.1827C24.6108 18.9761 24.4474 18.7305 24.3368 18.4601C24.2262 18.1897 24.1705 17.9 24.173 17.6079C24.1756 17.3158 24.2363 17.0271 24.3516 16.7587C24.4669 16.4903 24.6345 16.2475 24.8446 16.0446L27.6892 13.2L24.8446 10.3554C24.4439 9.94047 24.2221 9.38474 24.2271 8.80791C24.2321 8.23108 24.4635 7.67929 24.8714 7.27139C25.2793 6.8635 25.8311 6.63212 26.4079 6.62711C26.9848 6.6221 27.5405 6.84385 27.9554 7.24459L30.8 10.0892L33.6446 7.24459C34.0572 6.83216 34.6166 6.60046 35.2 6.60046C35.7834 6.60046 36.3428 6.83216 36.7554 7.24459Z" fill="#E30917"/>
</g>
</g>
</svg>
