<svg width="24" height="27" viewBox="0 0 24 27" fill="none" xmlns="http://www.w3.org/2000/svg">
<g id="ion:language">
<path id="Vector" d="M21.9145 22.4269L17.7916 11.4221C17.7154 11.2189 17.5862 11.0451 17.4204 10.9229C17.2546 10.8006 17.0595 10.7354 16.86 10.7354C16.6605 10.7354 16.4654 10.8006 16.2996 10.9229C16.1338 11.0451 16.0046 11.2189 15.9284 11.4221L11.8055 22.4269C11.7542 22.5619 11.7276 22.7067 11.7273 22.853C11.727 22.9993 11.7529 23.1442 11.8035 23.2795C11.8542 23.4147 11.9286 23.5376 12.0224 23.641C12.1163 23.7445 12.2278 23.8265 12.3505 23.8823C12.4733 23.9381 12.6048 23.9667 12.7376 23.9663C12.8703 23.966 13.0017 23.9367 13.1242 23.8803C13.2467 23.8238 13.3578 23.7412 13.4512 23.6372C13.5447 23.5333 13.6185 23.41 13.6686 23.2745L14.5083 21.0337H19.2117L20.0514 23.2745C20.1275 23.4778 20.2567 23.6517 20.4226 23.774C20.5885 23.8963 20.7836 23.9616 20.9832 23.9615C21.1488 23.9614 21.3118 23.9164 21.4579 23.8303C21.6039 23.7442 21.7285 23.6198 21.8205 23.4681C21.9125 23.3164 21.9692 23.142 21.9855 22.9604C22.0018 22.7788 21.9773 22.5956 21.9141 22.4269H21.9145ZM15.3407 18.8125L16.8602 14.7564L18.3798 18.8125H15.3407ZM12.2718 17.8493C12.4284 17.611 12.4927 17.314 12.4507 17.0234C12.4087 16.7328 12.2638 16.4725 12.0478 16.2996C12.0386 16.292 11.3606 15.7377 10.3762 14.5464C12.1926 11.8366 13.2215 8.75371 13.6411 7.30289H15.1194C15.3867 7.30289 15.6431 7.18589 15.8321 6.97761C16.0211 6.76934 16.1273 6.48686 16.1273 6.19232C16.1273 5.89777 16.0211 5.61529 15.8321 5.40702C15.6431 5.19875 15.3867 5.08174 15.1194 5.08174H9.80537V4.07212C9.80537 3.77758 9.69918 3.4951 9.51018 3.28683C9.32117 3.07855 9.06482 2.96155 8.79753 2.96155C8.53023 2.96155 8.27389 3.07855 8.08488 3.28683C7.89587 3.4951 7.78969 3.77758 7.78969 4.07212V5.08174H2.47564C2.20835 5.08174 1.952 5.19875 1.76299 5.40702C1.57399 5.61529 1.4678 5.89777 1.4678 6.19232C1.4678 6.48686 1.57399 6.76934 1.76299 6.97761C1.952 7.18589 2.20835 7.30289 2.47564 7.30289H11.5118C11.0757 8.66335 10.2726 10.8113 9.04766 12.773C7.60874 10.669 7.07413 9.30749 7.07 9.29638C6.96466 9.02812 6.76759 8.81644 6.52154 8.70724C6.27549 8.59805 6.00029 8.60015 5.75563 8.71309C5.51097 8.82604 5.31659 9.04071 5.21463 9.31055C5.11267 9.5804 5.11137 9.88366 5.211 10.1546C5.23757 10.2242 5.87755 11.8825 7.63256 14.3914C7.67471 14.4515 7.71639 14.51 7.75808 14.5686C5.96047 16.8074 4.19675 18.1961 3.45874 18.6444C3.22407 18.7855 3.04985 19.0235 2.97442 19.306C2.89899 19.5886 2.92852 19.8927 3.05652 20.1513C3.18452 20.4099 3.4005 20.6018 3.65695 20.6849C3.91339 20.7681 4.1893 20.7355 4.42397 20.5945C4.52292 20.5349 6.65038 19.2371 9.07972 16.2738C10.1114 17.4894 10.8205 18.0629 10.8631 18.0962C10.9703 18.182 11.0918 18.2437 11.2207 18.2777C11.3495 18.3117 11.4832 18.3173 11.614 18.2944C11.7449 18.2714 11.8703 18.2202 11.9832 18.1438C12.096 18.0673 12.1941 17.9671 12.2718 17.8488V17.8493Z" fill="#D27C2C"/>
</g>
</svg>
