<svg width="24" height="24" viewBox="0 0 24 24" fill="none" xmlns="http://www.w3.org/2000/svg">
<g id="material-symbols:update">
<path id="Vector" d="M12 21C10.75 21 9.579 20.7623 8.487 20.287C7.395 19.8117 6.445 19.1703 5.637 18.363C4.829 17.5543 4.18767 16.6043 3.713 15.513C3.23833 14.4217 3.00067 13.2507 3 12C3 10.75 3.23767 9.579 3.713 8.487C4.18833 7.395 4.82967 6.445 5.637 5.637C6.44567 4.829 7.39567 4.18767 8.487 3.713C9.57833 3.23833 10.7493 3.00067 12 3C13.3667 3 14.6627 3.29167 15.888 3.875C17.1133 4.45833 18.1507 5.28333 19 6.35V4H21V10H15V8H17.75C17.0667 7.06667 16.225 6.33333 15.225 5.8C14.225 5.26667 13.15 5 12 5C10.05 5 8.39567 5.67933 7.037 7.038C5.67833 8.39667 4.99933 10.0507 5 12C5 13.95 5.67933 15.6043 7.038 16.963C8.39667 18.3217 10.0507 19.0007 12 19C13.75 19 15.2793 18.4333 16.588 17.3C17.8967 16.1667 18.6673 14.7333 18.9 13H20.95C20.7 15.2833 19.721 17.1877 18.013 18.713C16.305 20.2383 14.3007 21.0007 12 21ZM14.8 16.2L11 12.4V7H13V11.6L16.2 14.8L14.8 16.2Z" fill="white"/>
</g>
</svg>
