<svg width="27" height="27" viewBox="0 0 27 27" fill="none" xmlns="http://www.w3.org/2000/svg">
<g id="fa:telegram" clip-path="url(#clip0_26_1063)">
<path id="Vector" d="M17.9146 19.6925L20.1295 9.25112C20.2199 8.80915 20.1671 8.49275 19.9713 8.3019C19.7754 8.11105 19.5167 8.07589 19.1953 8.19643L6.17746 13.2137C5.88616 13.3242 5.68778 13.4498 5.58231 13.5904C5.47684 13.731 5.46429 13.8641 5.54464 13.9897C5.625 14.1152 5.78571 14.2132 6.02679 14.2835L9.35658 15.3231L17.0859 10.4565C17.2969 10.3158 17.4576 10.2857 17.5681 10.3661C17.6384 10.4163 17.6183 10.4916 17.5078 10.5921L11.255 16.2422L11.014 19.6775C11.245 19.6775 11.471 19.567 11.692 19.346L13.3192 17.779L16.6942 20.2651C17.3371 20.6267 17.7439 20.4358 17.9146 19.6925ZM27 13.5C27 15.3281 26.6434 17.0759 25.9302 18.7433C25.2171 20.4107 24.2578 21.8471 23.0525 23.0525C21.8471 24.2578 20.4107 25.2171 18.7433 25.9302C17.0759 26.6434 15.3281 27 13.5 27C11.6719 27 9.92411 26.6434 8.2567 25.9302C6.58929 25.2171 5.1529 24.2578 3.94754 23.0525C2.74219 21.8471 1.78292 20.4107 1.06975 18.7433C0.356585 17.0759 0 15.3281 0 13.5C0 11.6719 0.356585 9.92411 1.06975 8.2567C1.78292 6.58929 2.74219 5.1529 3.94754 3.94754C5.1529 2.74219 6.58929 1.78292 8.2567 1.06975C9.92411 0.356585 11.6719 0 13.5 0C15.3281 0 17.0759 0.356585 18.7433 1.06975C20.4107 1.78292 21.8471 2.74219 23.0525 3.94754C24.2578 5.1529 25.2171 6.58929 25.9302 8.2567C26.6434 9.92411 27 11.6719 27 13.5Z" fill="#85B6FF"/>
</g>
<defs>
<clipPath id="clip0_26_1063">
<rect width="27" height="27" fill="white"/>
</clipPath>
</defs>
</svg>
